<?xml version="1.0" encoding="UTF-8" standalone="no"?>
<svg width="753px" height="469px" viewBox="0 0 753 469" version="1.1" xmlns="http://www.w3.org/2000/svg" xmlns:xlink="http://www.w3.org/1999/xlink" xmlns:sketch="http://www.bohemiancoding.com/sketch/ns">
    <!-- Generator: Sketch 3.5.2 (25235) - http://www.bohemiancoding.com/sketch -->
    <title>rocket-cloud</title>
    <desc>Created with Sketch.</desc>
    <defs></defs>
    <g id="icons" stroke="none" stroke-width="1" fill="none" fill-rule="evenodd" sketch:type="MSPage">
        <g id="Artboard-5" sketch:type="MSArtboardGroup" transform="translate(-289.000000, -22.000000)" fill="#005BCF">
            <g id="rocket-cloud" sketch:type="MSLayerGroup" transform="translate(289.000000, 22.000000)">
                <path d="M629.727495,51.7501627 L503.09751,186.210945 C498.011776,193.06155 498.134984,203.683951 503.09751,210.344932 L520.20967,224.135781 L595.503175,148.286109 C596.358783,148.58606 600.4349,148.58606 605.770471,148.286109 C605.47272,153.661093 605.47272,157.767318 605.770471,158.629246 L530.476966,234.478918 L544.166694,251.71748 C550.778833,256.716663 561.323346,256.840781 568.123719,251.71748 L701.598568,124.152123 C736.613471,89.8542798 753.366275,44.8788719 752.935049,0.0344771237 C708.419475,-0.399934635 663.76016,16.4628266 629.727495,51.7501627 L629.727495,51.7501627 Z M684.486408,113.808985 C673.69548,127.179214 654.19104,127.179214 643.417224,113.808985 C630.145032,102.941796 630.145032,83.2967309 643.417224,72.4364369 C654.19104,59.0627606 673.69548,59.0627606 684.486408,72.4364369 C697.7586,83.2967309 697.7586,102.941796 684.486408,113.808985 L684.486408,113.808985 Z M509.942374,162.076959 L444.916165,137.942972 L496.252646,86.2272864 L581.813447,86.2272864 L509.942374,162.076959 L509.942374,162.076959 Z M670.79668,168.972383 L670.79668,255.165193 L619.460199,306.880878 L595.503175,241.374343 L670.79668,168.972383 L670.79668,168.972383 Z M516.787238,237.930078 C526.123633,248.607644 526.123633,264.898085 516.787238,275.854915 C512.861709,278.25797 508.891687,280.457611 503.09751,282.750339 L462.028325,293.093476 L472.295622,251.720928 C474.581806,245.883951 476.761895,241.884605 479.140486,237.930078 C490.02382,228.521271 506.177699,228.521271 516.787238,237.930078 L516.787238,237.930078 Z" id="Shape" sketch:type="MSShapeGroup"></path>
                <path d="M492.830214,327.567152 C492.378453,319.682234 492.830214,315.0623 492.830214,310.328591 C492.830214,268.438885 459.122681,234.478918 417.536709,234.478918 C380.187708,234.478918 349.204431,261.884784 342.243204,296.537741 C336.123896,294.77596 328.255724,293.090029 318.28618,293.090029 C286.91959,293.090029 260.104835,320.102855 260.104835,355.148851 C260.104835,386.747135 286.91959,413.759962 318.28618,413.759962 L489.407782,413.759962 C513.980844,413.759962 533.899398,393.694276 533.899398,368.939701 C533.899398,344.912593 515.130781,325.302005 492.830214,327.567152" id="Shape" opacity="0.5" sketch:type="MSShapeGroup"></path>
                <path d="M325.131044,344.805714 C325.18238,338.661891 325.81553,332.262937 325.131044,324.11944 C325.81553,267.711418 278.623615,220.688069 222.458083,220.688069 C168.116707,220.688069 124.737381,258.633591 116.362689,306.880878 C106.427369,304.174424 95.4139829,301.84377 82.138369,303.433166 C37.5440795,301.84377 0,339.244554 0,386.178263 C0,431.519128 37.5440795,468.92336 82.138369,468.92336 L321.708612,468.92336 C355.426412,468.92336 383.312389,441.138246 383.312389,406.864537 C383.312389,373.594113 357.038378,346.443378 325.131044,344.805714" id="Shape" sketch:type="MSShapeGroup"></path>
            </g>
        </g>
    </g>
</svg>