<svg width="500" height="500" viewBox="0 0 500 500" xmlns="http://www.w3.org/2000/svg"><title>search</title><path d="M300.818 317.018c-61.86 0-112.008-50.145-112.008-112.004 0-61.864 50.147-112.01 112.008-112.01 61.859 0 112.007 50.146 112.007 112.01 0 61.86-50.148 112.004-112.007 112.004zm0-280.018c-92.79 0-168.01 75.222-168.01 168.014 0 36.284 11.54 69.85 31.095 97.315L32 434.232l19.8 19.798c10.938 10.937 28.666 10.937 39.601 0l112.104-112.104c27.462 19.557 61.027 31.099 97.313 31.099 92.79 0 168.01-75.224 168.01-168.01 0-92.793-75.22-168.015-168.01-168.015zm67.205 156.812c-6.188 0-11.202 5.013-11.202 11.202 0 30.928-25.074 56.003-56.003 56.003-6.188 0-11.202 5.016-11.202 11.2 0 6.188 5.014 11.2 11.202 11.2 43.299 0 78.405-35.103 78.405-78.403 0-6.19-5.016-11.202-11.2-11.202z" fill="#333" fill-rule="evenodd"/></svg>